<svg width="20" height="20" viewBox="0 0 20 20" fill="none" xmlns="http://www.w3.org/2000/svg">
<path d="M10.2325 7.36084L10 7.59334L9.7675 7.36084C9.55473 7.14542 9.30131 6.97438 9.02193 6.85764C8.74256 6.74091 8.44279 6.6808 8.14 6.6808C7.83722 6.6808 7.53745 6.74091 7.25807 6.85764C6.97869 6.97438 6.72527 7.14542 6.5125 7.36084C6.29695 7.57363 6.12581 7.8271 6.00899 8.10655C5.89218 8.38601 5.83203 8.68588 5.83203 8.98876C5.83203 9.29164 5.89218 9.59151 6.00899 9.87097C6.12581 10.1504 6.29695 10.4039 6.5125 10.6167L10 14.105L13.4883 10.6167C13.7039 10.4039 13.875 10.1504 13.9918 9.87097C14.1087 9.59151 14.1688 9.29164 14.1688 8.98876C14.1688 8.68588 14.1087 8.38601 13.9918 8.10655C13.875 7.8271 13.7039 7.57363 13.4883 7.36084C13.2755 7.14539 13.022 6.97434 12.7426 6.85759C12.4631 6.74084 12.1633 6.68073 11.8604 6.68073C11.5576 6.68073 11.2577 6.74084 10.9783 6.85759C10.6988 6.97434 10.4453 7.14539 10.2325 7.36084Z" fill="white"/>
<path d="M10 1.66666C5.40502 1.66666 1.66669 5.40499 1.66669 9.99999C1.66669 14.595 5.40502 18.3333 10 18.3333C14.595 18.3333 18.3334 14.595 18.3334 9.99999C18.3334 5.40499 14.595 1.66666 10 1.66666ZM10 16.6667C6.32419 16.6667 3.33335 13.6758 3.33335 9.99999C3.33335 6.32416 6.32419 3.33332 10 3.33332C13.6759 3.33332 16.6667 6.32416 16.6667 9.99999C16.6667 13.6758 13.6759 16.6667 10 16.6667Z" fill="white"/>
</svg>
